{
  "accessors": [
    {
      "bufferView": 2,
      "componentType": 5126,
      "count": 6610,
      "max": [
        5.804891586303711,
        1.7475485801696777,
        7.984396457672119
      ],
      "min": [
        -5.804891586303711,
        0.13409751653671265,
        -7.954246997833252
      ],
      "type": "VEC3"
    },
    {
      "bufferView": 2,
      "byteOffset": 79320,
      "componentType": 5126,
      "count": 6610,
      "max": [
        1.0,
        0.9999997019767761,
        0.9999997019767761
      ],
      "min": [
        -1.0,
        -1.0,
        -0.9999997019767761
      ],
      "type": "VEC3"
    },
    {
      "bufferView": 3,
      "componentType": 5126,
      "count": 6610,
      "max": [
        1.0,
        1.0,
        1.0,
        1.0
      ],
      "min": [
        -0.7893101572990417,
        -1.0,
        -0.9999977350234985,
        1.0
      ],
      "type": "VEC4"
    },
    {
      "bufferView": 1,
      "componentType": 5126,
      "count": 6610,
      "max": [
        0.9871779680252075,
        0.9897769093513489
      ],
      "min": [
        0.010489195585250854,
        0.01569974422454834
      ],
      "type": "VEC2"
    },
    {
      "bufferView": 0,
      "componentType": 5125,
      "count": 25662,
      "type": "SCALAR"
    }
  ],
  "asset": {
    "extras": {
      "author": "Ankush Gupta (https://sketchfab.com/Ankush4135)",
      "license": "CC-BY-4.0 (http://creativecommons.org/licenses/by/4.0/)",
      "source": "https://sketchfab.com/3d-models/internet-server-c1341d5580c04ee0a62509841799e592",
      "title": "Internet Server"
    },
    "generator": "Sketchfab-12.68.0",
    "version": "2.0"
  },
  "bufferViews": [
    {
      "buffer": 0,
      "byteLength": 102648,
      "name": "floatBufferViews",
      "target": 34963
    },
    {
      "buffer": 0,
      "byteLength": 52880,
      "byteOffset": 102648,
      "byteStride": 8,
      "name": "floatBufferViews",
      "target": 34962
    },
    {
      "buffer": 0,
      "byteLength": 158640,
      "byteOffset": 155528,
      "byteStride": 12,
      "name": "floatBufferViews",
      "target": 34962
    },
    {
      "buffer": 0,
      "byteLength": 105760,
      "byteOffset": 314168,
      "byteStride": 16,
      "name": "floatBufferViews",
      "target": 34962
    }
  ],
  "buffers": [
    {
      "byteLength": 419928,
      "uri": "scene.bin"
    }
  ],
  "images": [
    {
      "uri": "textures/internet_server_baseColor.png"
    },
    {
      "uri": "textures/internet_server_metallicRoughness.png"
    },
    {
      "uri": "textures/internet_server_normal.png"
    }
  ],
  "materials": [
    {
      "doubleSided": true,
      "name": "internet_server",
      "normalTexture": {
        "index": 2
      },
      "pbrMetallicRoughness": {
        "baseColorTexture": {
          "index": 0
        },
        "metallicRoughnessTexture": {
          "index": 1
        }
      }
    }
  ],
  "meshes": [
    {
      "name": "Internet_Server_internet_server_0",
      "primitives": [
        {
          "attributes": {
            "NORMAL": 1,
            "POSITION": 0,
            "TANGENT": 2,
            "TEXCOORD_0": 3
          },
          "indices": 4,
          "material": 0,
          "mode": 4
        }
      ]
    }
  ],
  "nodes": [
    {
      "children": [
        1
      ],
      "matrix": [
        1.0,
        0.0,
        0.0,
        0.0,
        0.0,
        2.220446049250313e-16,
        -1.0,
        0.0,
        0.0,
        1.0,
        2.220446049250313e-16,
        0.0,
        0.0,
        0.0,
        0.0,
        1.0
      ],
      "name": "Sketchfab_model"
    },
    {
      "children": [
        2
      ],
      "matrix": [
        1.0,
        0.0,
        0.0,
        0.0,
        0.0,
        0.0,
        1.0,
        0.0,
        0.0,
        -1.0,
        0.0,
        0.0,
        0.0,
        0.0,
        0.0,
        1.0
      ],
      "name": "c660529373dc4d7e946284b6c60e88aa.fbx"
    },
    {
      "children": [
        3
      ],
      "name": "RootNode"
    },
    {
      "children": [
        4
      ],
      "name": "Internet_Server"
    },
    {
      "mesh": 0,
      "name": "Internet_Server_internet_server_0"
    }
  ],
  "samplers": [
    {
      "magFilter": 9729,
      "minFilter": 9987,
      "wrapS": 10497,
      "wrapT": 10497
    }
  ],
  "scene": 0,
  "scenes": [
    {
      "name": "Sketchfab_Scene",
      "nodes": [
        0
      ]
    }
  ],
  "textures": [
    {
      "sampler": 0,
      "source": 0
    },
    {
      "sampler": 0,
      "source": 1
    },
    {
      "sampler": 0,
      "source": 2
    }
  ]
}
